# xmcd
#
# Track frame offsets:
#	150
#	12156
#	15842
#	24735
#	28323
#	39943
#	45659
#	52630
#	62090
#	67278
#	78315
#	89778
#	94356
#	107317
#	115009
#	122108
#	129362
#	136510
#	140504
#	147024
#	152839
#	156371
#	163491
#	171015
#	180658
#	203569
#	214523
#
# Disc length: 3060 seconds
# Revision: 0
# Processed by: cddbd v1.5.2PL0 Copyright (c) Steve Scherf et al.
# Submitted via: dBpowerAMP V12.0
#
DISCID=690bf21b
DTITLE=René Jacobs - Venus and Adonis
DYEAR=1999
DGENRE=Classical
TTITLE0=Overture
TTITLE1=The Prologue - Cupid, Chorus - Behold my arrows and my bow
TTITLE2=Shepherds, Shepherdess - Come shepherds all
TTITLE3=Cupid - Courtiers there is no faith in you
TTITLE4=Chorus, Shepherds, Shepherdess - In these sweet groves
TTITLE5=Cupid's Entry
TTITLE6=Act I - The Act Tune
TTITLE7=Adonis, Venus - Venus! Adonis!
TTITLE8=Hunter's Music, Venus - Hark, hark the rural music sounds
TTITLE9=Adonis, Venus - Adonis will not hunt today
TTITLE10=Huntsman, Adonis, chorus - Come, follow the noblest game
TTITLE11=Entry: A dance by a huntsman
TTITLE12=Act II - The Act Tune
TTITLE13=Cupid, Venus - You place with such delightful care
TTITLE14=Cupid, Little Cupids - THE CUPID'S LESSON: The insolent, the arrogant
TTITLE15=Cupid - Choose for the formal fool
TTITLE16=A Dance of Cupids
TTITLE17=Venus - Call the Graces
TTITLE18=Chorus of the Graces - Mortals below, Cupids above
TTITLE19=The Graces' Dance
TTITLE20=Gavatt
TTITLE21=Saraband for the Graces
TTITLE22=A Ground
TTITLE23=The Act Tune
TTITLE24=Act III - Venus, Adonis - Adonis, uncall'd for sighs
TTITLE25=Venus - With solemn pomp let mourning Cupids bear
TTITLE26=Chorus - Mourn for thy servant
EXTD=
EXTT0=
EXTT1=
EXTT2=
EXTT3=
EXTT4=
EXTT5=
EXTT6=
EXTT7=
EXTT8=
EXTT9=
EXTT10=
EXTT11=
EXTT12=
EXTT13=
EXTT14=
EXTT15=
EXTT16=
EXTT17=
EXTT18=
EXTT19=
EXTT20=
EXTT21=
EXTT22=
EXTT23=
EXTT24=
EXTT25=
EXTT26=
PLAYORDER=
